<svg xmlns="http://www.w3.org/2000/svg" viewBox="0 0 100 100">
  <!-- Background -->
  <rect width="100" height="100" fill="#f5a623" rx="20"/>

  <!-- Left Bear (White) -->
  <g id="bear1">
    <!-- Left ear -->
    <circle cx="25" cy="30" r="10" fill="#fff"/>
    <!-- Right ear -->
    <circle cx="45" cy="30" r="10" fill="#fff"/>
    <!-- Head -->
    <circle cx="35" cy="45" r="18" fill="#fff"/>
    <!-- Eyes -->
    <circle cx="30" cy="43" r="3" fill="#000"/>
    <circle cx="40" cy="43" r="3" fill="#000"/>
    <!-- Nose -->
    <ellipse cx="35" cy="50" rx="3" ry="2" fill="#000"/>
  </g>

  <!-- Right Bear (Light Orange) -->
  <g id="bear2">
    <!-- Left ear -->
    <circle cx="55" cy="35" r="11" fill="#f8b84e"/>
    <!-- Right ear -->
    <circle cx="77" cy="35" r="11" fill="#f8b84e"/>
    <!-- Head -->
    <circle cx="66" cy="52" r="20" fill="#f8b84e"/>
    <!-- Eyes -->
    <circle cx="60" cy="50" r="3.5" fill="#000"/>
    <circle cx="72" cy="50" r="3.5" fill="#000"/>
    <!-- Nose -->
    <ellipse cx="66" cy="58" rx="3.5" ry="2.5" fill="#000"/>
  </g>

  <!-- Small heart -->
  <g transform="translate(50, 70) scale(1.2)">
    <path d="M 0,-3 C -3,-7 -8,-7 -8,-3 C -8,2 0,7 0,9 C 0,7 8,2 8,-3 C 8,-7 3,-7 0,-3 Z"
          fill="#ff6b6b"/>
  </g>
</svg>
